<mxfile host="app.diagrams.net" modified="2020-12-28T09:03:15.412Z" agent="5.0 (Windows NT 10.0; Win64; x64) AppleWebKit/537.36 (KHTML, like Gecko) Chrome/87.0.4280.88 Safari/537.36" etag="bmrPM18tTrwSvVXlkhQ_" version="14.1.2" type="github">
  <diagram id="-8zWIJpkyieSWu7LHHZg" name="Page-1">
    <mxGraphModel dx="1038" dy="548" grid="1" gridSize="10" guides="1" tooltips="1" connect="1" arrows="1" fold="1" page="1" pageScale="1" pageWidth="827" pageHeight="1169" math="0" shadow="0">
      <root>
        <mxCell id="0" />
        <mxCell id="1" parent="0" />
        <mxCell id="Wc0c4iubqfkj7qpLGNnR-4" value="&lt;font style=&quot;font-size: 21px&quot;&gt;User&lt;/font&gt;" style="rounded=0;whiteSpace=wrap;html=1;" vertex="1" parent="1">
          <mxGeometry x="140" y="260" width="120" height="60" as="geometry" />
        </mxCell>
        <mxCell id="Wc0c4iubqfkj7qpLGNnR-5" value="&lt;font style=&quot;font-size: 21px&quot;&gt;Contact&lt;/font&gt;" style="rounded=0;whiteSpace=wrap;html=1;" vertex="1" parent="1">
          <mxGeometry x="530" y="260" width="120" height="60" as="geometry" />
        </mxCell>
        <mxCell id="Wc0c4iubqfkj7qpLGNnR-25" value="&lt;u&gt;&lt;b&gt;id&lt;/b&gt;&lt;/u&gt;" style="ellipse;whiteSpace=wrap;html=1;" vertex="1" parent="1">
          <mxGeometry x="50" y="100" width="70" height="50" as="geometry" />
        </mxCell>
        <mxCell id="Wc0c4iubqfkj7qpLGNnR-26" value="Name&lt;br&gt;" style="ellipse;whiteSpace=wrap;html=1;" vertex="1" parent="1">
          <mxGeometry x="120" y="70" width="70" height="50" as="geometry" />
        </mxCell>
        <mxCell id="Wc0c4iubqfkj7qpLGNnR-27" value="Email" style="ellipse;whiteSpace=wrap;html=1;" vertex="1" parent="1">
          <mxGeometry x="204" y="60" width="70" height="50" as="geometry" />
        </mxCell>
        <mxCell id="Wc0c4iubqfkj7qpLGNnR-28" value="Password" style="ellipse;whiteSpace=wrap;html=1;" vertex="1" parent="1">
          <mxGeometry x="274" y="80" width="70" height="50" as="geometry" />
        </mxCell>
        <mxCell id="Wc0c4iubqfkj7qpLGNnR-29" value="about" style="ellipse;whiteSpace=wrap;html=1;" vertex="1" parent="1">
          <mxGeometry x="350" y="180" width="70" height="50" as="geometry" />
        </mxCell>
        <mxCell id="Wc0c4iubqfkj7qpLGNnR-30" value="enabled" style="ellipse;whiteSpace=wrap;html=1;" vertex="1" parent="1">
          <mxGeometry x="10" y="150" width="70" height="50" as="geometry" />
        </mxCell>
        <mxCell id="Wc0c4iubqfkj7qpLGNnR-31" value="image" style="ellipse;whiteSpace=wrap;html=1;" vertex="1" parent="1">
          <mxGeometry x="330" y="120" width="70" height="50" as="geometry" />
        </mxCell>
        <mxCell id="Wc0c4iubqfkj7qpLGNnR-33" value="role" style="ellipse;whiteSpace=wrap;html=1;" vertex="1" parent="1">
          <mxGeometry y="210" width="70" height="50" as="geometry" />
        </mxCell>
        <mxCell id="Wc0c4iubqfkj7qpLGNnR-34" value="" style="endArrow=none;html=1;entryX=1;entryY=0.5;entryDx=0;entryDy=0;exitX=0;exitY=0;exitDx=0;exitDy=0;" edge="1" parent="1" source="Wc0c4iubqfkj7qpLGNnR-4" target="Wc0c4iubqfkj7qpLGNnR-33">
          <mxGeometry width="50" height="50" relative="1" as="geometry">
            <mxPoint x="390" y="250" as="sourcePoint" />
            <mxPoint x="260" y="210" as="targetPoint" />
          </mxGeometry>
        </mxCell>
        <mxCell id="Wc0c4iubqfkj7qpLGNnR-35" value="" style="endArrow=none;html=1;entryX=0.937;entryY=0.74;entryDx=0;entryDy=0;entryPerimeter=0;" edge="1" parent="1" target="Wc0c4iubqfkj7qpLGNnR-30">
          <mxGeometry width="50" height="50" relative="1" as="geometry">
            <mxPoint x="160" y="257" as="sourcePoint" />
            <mxPoint x="80" y="245" as="targetPoint" />
            <Array as="points" />
          </mxGeometry>
        </mxCell>
        <mxCell id="Wc0c4iubqfkj7qpLGNnR-36" value="" style="endArrow=none;html=1;entryX=1;entryY=1;entryDx=0;entryDy=0;" edge="1" parent="1" target="Wc0c4iubqfkj7qpLGNnR-25">
          <mxGeometry width="50" height="50" relative="1" as="geometry">
            <mxPoint x="170" y="260" as="sourcePoint" />
            <mxPoint x="85.58999999999992" y="197" as="targetPoint" />
            <Array as="points" />
          </mxGeometry>
        </mxCell>
        <mxCell id="Wc0c4iubqfkj7qpLGNnR-37" value="" style="endArrow=none;html=1;entryX=0.634;entryY=1.028;entryDx=0;entryDy=0;exitX=0.31;exitY=-0.03;exitDx=0;exitDy=0;exitPerimeter=0;entryPerimeter=0;" edge="1" parent="1" source="Wc0c4iubqfkj7qpLGNnR-4" target="Wc0c4iubqfkj7qpLGNnR-26">
          <mxGeometry width="50" height="50" relative="1" as="geometry">
            <mxPoint x="180" y="270" as="sourcePoint" />
            <mxPoint x="119.74873734152902" y="152.6776695296636" as="targetPoint" />
            <Array as="points" />
          </mxGeometry>
        </mxCell>
        <mxCell id="Wc0c4iubqfkj7qpLGNnR-38" value="" style="endArrow=none;html=1;entryX=0.5;entryY=1;entryDx=0;entryDy=0;" edge="1" parent="1" target="Wc0c4iubqfkj7qpLGNnR-27">
          <mxGeometry width="50" height="50" relative="1" as="geometry">
            <mxPoint x="187" y="260" as="sourcePoint" />
            <mxPoint x="174.3800000000001" y="131.39999999999998" as="targetPoint" />
            <Array as="points" />
          </mxGeometry>
        </mxCell>
        <mxCell id="Wc0c4iubqfkj7qpLGNnR-39" value="" style="endArrow=none;html=1;entryX=0;entryY=1;entryDx=0;entryDy=0;exitX=0.5;exitY=0;exitDx=0;exitDy=0;" edge="1" parent="1" source="Wc0c4iubqfkj7qpLGNnR-4" target="Wc0c4iubqfkj7qpLGNnR-28">
          <mxGeometry width="50" height="50" relative="1" as="geometry">
            <mxPoint x="197" y="270" as="sourcePoint" />
            <mxPoint x="249" y="120" as="targetPoint" />
            <Array as="points" />
          </mxGeometry>
        </mxCell>
        <mxCell id="Wc0c4iubqfkj7qpLGNnR-40" value="" style="endArrow=none;html=1;entryX=0.011;entryY=0.684;entryDx=0;entryDy=0;exitX=0.61;exitY=-0.017;exitDx=0;exitDy=0;exitPerimeter=0;entryPerimeter=0;" edge="1" parent="1" source="Wc0c4iubqfkj7qpLGNnR-4" target="Wc0c4iubqfkj7qpLGNnR-31">
          <mxGeometry width="50" height="50" relative="1" as="geometry">
            <mxPoint x="210" y="270" as="sourcePoint" />
            <mxPoint x="294.251262658471" y="132.6776695296635" as="targetPoint" />
            <Array as="points" />
          </mxGeometry>
        </mxCell>
        <mxCell id="Wc0c4iubqfkj7qpLGNnR-41" value="" style="endArrow=none;html=1;entryX=0;entryY=0.5;entryDx=0;entryDy=0;" edge="1" parent="1" target="Wc0c4iubqfkj7qpLGNnR-29">
          <mxGeometry width="50" height="50" relative="1" as="geometry">
            <mxPoint x="230" y="260" as="sourcePoint" />
            <mxPoint x="340.77" y="164.20000000000005" as="targetPoint" />
            <Array as="points" />
          </mxGeometry>
        </mxCell>
        <mxCell id="Wc0c4iubqfkj7qpLGNnR-42" value="&lt;u&gt;&lt;b&gt;cid&lt;/b&gt;&lt;/u&gt;" style="ellipse;whiteSpace=wrap;html=1;rotation=0;" vertex="1" parent="1">
          <mxGeometry x="450" y="130" width="70" height="50" as="geometry" />
        </mxCell>
        <mxCell id="Wc0c4iubqfkj7qpLGNnR-43" value="Name" style="ellipse;whiteSpace=wrap;html=1;" vertex="1" parent="1">
          <mxGeometry x="500" y="80" width="70" height="50" as="geometry" />
        </mxCell>
        <mxCell id="Wc0c4iubqfkj7qpLGNnR-44" value="Phone" style="ellipse;whiteSpace=wrap;html=1;" vertex="1" parent="1">
          <mxGeometry x="570" y="50" width="70" height="50" as="geometry" />
        </mxCell>
        <mxCell id="Wc0c4iubqfkj7qpLGNnR-45" value="nickName" style="ellipse;whiteSpace=wrap;html=1;" vertex="1" parent="1">
          <mxGeometry x="650" y="60" width="70" height="50" as="geometry" />
        </mxCell>
        <mxCell id="Wc0c4iubqfkj7qpLGNnR-46" value="work" style="ellipse;whiteSpace=wrap;html=1;" vertex="1" parent="1">
          <mxGeometry x="730" y="80" width="70" height="50" as="geometry" />
        </mxCell>
        <mxCell id="Wc0c4iubqfkj7qpLGNnR-47" value="email" style="ellipse;whiteSpace=wrap;html=1;" vertex="1" parent="1">
          <mxGeometry x="757" y="140" width="70" height="50" as="geometry" />
        </mxCell>
        <mxCell id="Wc0c4iubqfkj7qpLGNnR-48" value="image" style="ellipse;whiteSpace=wrap;html=1;" vertex="1" parent="1">
          <mxGeometry x="730" y="200" width="70" height="50" as="geometry" />
        </mxCell>
        <mxCell id="Wc0c4iubqfkj7qpLGNnR-49" value="description" style="ellipse;whiteSpace=wrap;html=1;" vertex="1" parent="1">
          <mxGeometry x="440" y="190" width="70" height="50" as="geometry" />
        </mxCell>
        <mxCell id="Wc0c4iubqfkj7qpLGNnR-50" value="" style="endArrow=none;html=1;entryX=1;entryY=1;entryDx=0;entryDy=0;" edge="1" parent="1" source="Wc0c4iubqfkj7qpLGNnR-5" target="Wc0c4iubqfkj7qpLGNnR-49">
          <mxGeometry width="50" height="50" relative="1" as="geometry">
            <mxPoint x="530" y="250" as="sourcePoint" />
            <mxPoint x="440" y="210" as="targetPoint" />
          </mxGeometry>
        </mxCell>
        <mxCell id="Wc0c4iubqfkj7qpLGNnR-51" value="" style="endArrow=none;html=1;entryX=1;entryY=1;entryDx=0;entryDy=0;exitX=0.193;exitY=-0.017;exitDx=0;exitDy=0;exitPerimeter=0;" edge="1" parent="1" source="Wc0c4iubqfkj7qpLGNnR-5" target="Wc0c4iubqfkj7qpLGNnR-42">
          <mxGeometry width="50" height="50" relative="1" as="geometry">
            <mxPoint x="552.7664374853839" y="270" as="sourcePoint" />
            <mxPoint x="509.748737341529" y="242.6776695296635" as="targetPoint" />
          </mxGeometry>
        </mxCell>
        <mxCell id="Wc0c4iubqfkj7qpLGNnR-52" value="" style="endArrow=none;html=1;entryX=0.691;entryY=0.972;entryDx=0;entryDy=0;entryPerimeter=0;" edge="1" parent="1" source="Wc0c4iubqfkj7qpLGNnR-5" target="Wc0c4iubqfkj7qpLGNnR-43">
          <mxGeometry width="50" height="50" relative="1" as="geometry">
            <mxPoint x="563" y="250" as="sourcePoint" />
            <mxPoint x="519.748737341529" y="182.6776695296635" as="targetPoint" />
          </mxGeometry>
        </mxCell>
        <mxCell id="Wc0c4iubqfkj7qpLGNnR-53" value="" style="endArrow=none;html=1;entryX=0.5;entryY=1;entryDx=0;entryDy=0;" edge="1" parent="1" target="Wc0c4iubqfkj7qpLGNnR-44">
          <mxGeometry width="50" height="50" relative="1" as="geometry">
            <mxPoint x="592" y="260" as="sourcePoint" />
            <mxPoint x="558.3699999999999" y="138.60000000000002" as="targetPoint" />
          </mxGeometry>
        </mxCell>
        <mxCell id="Wc0c4iubqfkj7qpLGNnR-54" value="" style="endArrow=none;html=1;entryX=0;entryY=1;entryDx=0;entryDy=0;" edge="1" parent="1" target="Wc0c4iubqfkj7qpLGNnR-45">
          <mxGeometry width="50" height="50" relative="1" as="geometry">
            <mxPoint x="602" y="260" as="sourcePoint" />
            <mxPoint x="615" y="110" as="targetPoint" />
          </mxGeometry>
        </mxCell>
        <mxCell id="Wc0c4iubqfkj7qpLGNnR-55" value="" style="endArrow=none;html=1;entryX=0;entryY=1;entryDx=0;entryDy=0;exitX=0.75;exitY=0;exitDx=0;exitDy=0;" edge="1" parent="1" source="Wc0c4iubqfkj7qpLGNnR-5" target="Wc0c4iubqfkj7qpLGNnR-46">
          <mxGeometry width="50" height="50" relative="1" as="geometry">
            <mxPoint x="612" y="270" as="sourcePoint" />
            <mxPoint x="670.251262658471" y="112.67766952966372" as="targetPoint" />
          </mxGeometry>
        </mxCell>
        <mxCell id="Wc0c4iubqfkj7qpLGNnR-56" value="" style="endArrow=none;html=1;entryX=0;entryY=0.5;entryDx=0;entryDy=0;" edge="1" parent="1" target="Wc0c4iubqfkj7qpLGNnR-47">
          <mxGeometry width="50" height="50" relative="1" as="geometry">
            <mxPoint x="630" y="260" as="sourcePoint" />
            <mxPoint x="750.251262658471" y="132.6776695296635" as="targetPoint" />
          </mxGeometry>
        </mxCell>
        <mxCell id="Wc0c4iubqfkj7qpLGNnR-57" value="" style="endArrow=none;html=1;entryX=0;entryY=0.5;entryDx=0;entryDy=0;exitX=1;exitY=0;exitDx=0;exitDy=0;" edge="1" parent="1" source="Wc0c4iubqfkj7qpLGNnR-5" target="Wc0c4iubqfkj7qpLGNnR-48">
          <mxGeometry width="50" height="50" relative="1" as="geometry">
            <mxPoint x="640" y="270" as="sourcePoint" />
            <mxPoint x="767" y="175" as="targetPoint" />
          </mxGeometry>
        </mxCell>
        <mxCell id="Wc0c4iubqfkj7qpLGNnR-58" value="has" style="rhombus;whiteSpace=wrap;html=1;" vertex="1" parent="1">
          <mxGeometry x="356" y="340" width="116" height="110" as="geometry" />
        </mxCell>
        <mxCell id="Wc0c4iubqfkj7qpLGNnR-59" value="" style="endArrow=none;html=1;exitX=0.5;exitY=1;exitDx=0;exitDy=0;entryX=0;entryY=0.5;entryDx=0;entryDy=0;" edge="1" parent="1" source="Wc0c4iubqfkj7qpLGNnR-4" target="Wc0c4iubqfkj7qpLGNnR-58">
          <mxGeometry width="50" height="50" relative="1" as="geometry">
            <mxPoint x="390" y="260" as="sourcePoint" />
            <mxPoint x="440" y="210" as="targetPoint" />
          </mxGeometry>
        </mxCell>
        <mxCell id="Wc0c4iubqfkj7qpLGNnR-60" value="" style="endArrow=none;html=1;exitX=1;exitY=0.5;exitDx=0;exitDy=0;entryX=0.5;entryY=1;entryDx=0;entryDy=0;" edge="1" parent="1" source="Wc0c4iubqfkj7qpLGNnR-58" target="Wc0c4iubqfkj7qpLGNnR-5">
          <mxGeometry width="50" height="50" relative="1" as="geometry">
            <mxPoint x="210" y="330" as="sourcePoint" />
            <mxPoint x="366" y="405" as="targetPoint" />
          </mxGeometry>
        </mxCell>
        <mxCell id="Wc0c4iubqfkj7qpLGNnR-61" value="1" style="text;html=1;strokeColor=none;fillColor=none;align=center;verticalAlign=middle;whiteSpace=wrap;rounded=0;" vertex="1" parent="1">
          <mxGeometry x="234" y="350" width="40" height="20" as="geometry" />
        </mxCell>
        <mxCell id="Wc0c4iubqfkj7qpLGNnR-62" value="n" style="text;html=1;strokeColor=none;fillColor=none;align=center;verticalAlign=middle;whiteSpace=wrap;rounded=0;" vertex="1" parent="1">
          <mxGeometry x="520" y="360" width="40" height="20" as="geometry" />
        </mxCell>
      </root>
    </mxGraphModel>
  </diagram>
</mxfile>
